<svg width="10" height="11" viewBox="0 0 10 11" fill="none" xmlns="http://www.w3.org/2000/svg">
<path opacity="0.5" d="M10 5.5C10 8.2615 7.7615 10.5 5 10.5C2.2385 10.5 0 8.2615 0 5.5C0 2.7385 2.2385 0.5 5 0.5C7.7615 0.5 10 2.7385 10 5.5Z" fill="#474747"/>
<path d="M4.20646 3.749L4.28846 3.602C4.60496 3.034 4.76346 2.75 4.99996 2.75C5.23646 2.75 5.39496 3.034 5.71146 3.602L5.79346 3.749C5.88346 3.9105 5.92846 3.991 5.99846 4.044C6.06846 4.0975 6.15646 4.1175 6.33096 4.157L6.48996 4.193C7.10496 4.332 7.41246 4.4015 7.48546 4.637C7.55896 4.872 7.34896 5.117 6.92996 5.6075L6.82146 5.7345C6.70246 5.8735 6.64296 5.9435 6.61646 6.0295C6.58896 6.1155 6.59796 6.2085 6.61646 6.3945L6.63246 6.5635C6.69596 7.2175 6.72746 7.5445 6.53596 7.69C6.34446 7.835 6.05696 7.703 5.48096 7.438L5.33196 7.369C5.16846 7.294 5.08696 7.256 4.99996 7.256C4.91346 7.256 4.83146 7.294 4.66796 7.369L4.51896 7.438C3.94296 7.703 3.65546 7.8355 3.46396 7.69C3.27246 7.545 3.30396 7.2175 3.36746 6.5635L3.38346 6.3945C3.40196 6.2085 3.41096 6.1155 3.38346 6.0295C3.35696 5.9435 3.29746 5.8735 3.17846 5.7345L3.06996 5.6075C2.65096 5.1175 2.44096 4.8725 2.51446 4.637C2.58746 4.402 2.89446 4.332 3.50946 4.193L3.66896 4.157C3.84396 4.117 3.93096 4.0975 4.00146 4.0445C4.07146 3.991 4.11646 3.91 4.20646 3.749Z" fill="#474747"/>
</svg>
